<svg width="723" height="669" viewBox="0 0 723 669" fill="none" xmlns="http://www.w3.org/2000/svg">
<path d="M62.5678 47.7615C95.8244 66.6794 129.737 87.2822 162.779 106.746L360.579 223.266L659.797 48.5567L687.267 67.059L661.388 82.1071L360.462 257.654L149.742 133.511C111.697 111.1 73.3915 88.0876 35.1328 66.1538C42.1438 60.7552 54.8342 52.8984 62.5678 47.7615Z" fill="#6B6B6B"></path>
<path d="M10.7449 115.36C22.157 120.99 36.7068 129.68 48.0185 136.002L117.177 174.627L332.859 295.072L332.848 571.966L332.864 638.148C332.879 643.725 333.296 664.701 332.465 668.761L331.256 668.966L303.026 655.305C303.02 541.469 302.072 426.263 303.37 312.538C269.441 294.173 235.188 274.632 201.431 255.842L8.13867 148.206C8.72793 137.574 9.89324 126.062 10.7449 115.36Z" fill="#6B6B6B"></path>
<path d="M710.456 115.774L711.453 116.399C712.875 124.319 713.688 139.586 714.392 148.104C704.27 154.266 691.4 160.977 680.788 166.884L616.343 202.762L419.329 312.399L419.381 655.195C410.681 659.725 400.948 664.232 392.073 668.563L390.702 668.893C389.068 666.299 389.859 654.374 389.866 650.849C389.896 609.161 389.888 567.458 389.888 525.763L389.485 295.245C399.621 288.929 413.693 281.579 424.335 275.642L492.21 237.782L710.456 115.774Z" fill="#6B6B6B"></path>
<path d="M587.913 0C590.676 0.00073291 612.033 15.2211 616.086 17.9922L361.012 171.482C336.938 156.166 310.351 140.713 285.837 125.841L137.066 35.6311L109.122 18.5807L136.466 0.29609L361.063 136.746C436.318 92.5138 513.266 45.4536 587.913 0Z" fill="#6B6B6B"></path>
<path d="M719.053 200.801C720.46 206.425 721.926 226.515 722.571 233.351C697.953 247.203 671.333 260.876 646.253 274.333L494.064 356.036L495.464 491.94C495.816 533.29 495.772 576.466 496.864 617.722L469.505 630.885L468.112 631.5C466.844 630.027 466.925 629.177 466.925 626.854C466.991 593.594 466.522 560.137 466.214 526.863L464.242 338.439C489.513 323.612 521.431 307.487 547.574 293.384L719.053 200.801Z" fill="#6B6B6B"></path>
<path d="M3.03717 200.794C11.6335 204.891 23.7316 211.836 32.248 216.433L87.903 246.489L258.083 338.256L256.206 532.374L255.437 597.061C255.354 608.179 255.744 620.148 255.119 631.178L254.128 631.552L225.438 617.648C226.235 611.448 225.935 595.91 226.004 588.794L226.555 533.092L228.261 355.992C218.003 350.231 207.392 344.867 197.054 339.216C131.679 303.494 65.1938 269.372 0 233.356C0.88902 222.491 1.90189 211.637 3.03717 200.794Z" fill="#6B6B6B"></path>
</svg>